<?xml version="1.0" standalone="no"?>
<!DOCTYPE svg PUBLIC "-//W3C//DTD SVG 20010904//EN"
 "http://www.w3.org/TR/2001/REC-SVG-20010904/DTD/svg10.dtd">
<svg version="1.0" xmlns="http://www.w3.org/2000/svg"
 width="512.000000pt" height="512.000000pt" viewBox="0 0 512.000000 512.000000"
 preserveAspectRatio="xMidYMid meet">
<metadata>
Created by potrace 1.14, written by Peter Selinger 2001-2017
</metadata>
<g transform="translate(0.000000,512.000000) scale(0.100000,-0.100000)"
fill="#000000" stroke="none">
<path d="M1345 4707 c-11 -14 -214 -246 -230 -263 -26 -28 -257 -290 -404
-459 -57 -66 -246 -280 -251 -285 -3 -3 -52 -59 -110 -125 -58 -66 -108 -122
-111 -125 -4 -3 -23 -25 -43 -48 l-36 -44 0 -159 0 -159 245 -2 245 -3 -67
-75 c-36 -41 -93 -106 -127 -145 -33 -38 -79 -90 -102 -115 -22 -25 -75 -84
-117 -132 l-77 -88 0 -160 0 -160 229 -2 230 -3 -78 -135 c-43 -74 -104 -180
-136 -235 -89 -152 -164 -284 -198 -345 -16 -30 -34 -59 -38 -65 -5 -5 -9
-226 -9 -492 l0 -483 2400 0 2400 0 0 481 0 480 -137 237 c-75 130 -178 309
-230 397 l-93 160 230 3 230 2 0 160 c0 180 9 153 -95 268 -81 90 -88 98 -132
149 -60 69 -87 100 -152 173 -32 36 -71 80 -86 98 l-27 32 246 0 246 0 0 160
0 160 -107 122 c-60 68 -112 128 -118 134 -5 6 -39 44 -75 84 -36 41 -85 97
-110 125 -25 28 -72 82 -105 119 -33 38 -64 74 -70 80 -5 6 -35 40 -65 76 -30
36 -62 72 -70 80 -9 8 -65 71 -125 140 -60 69 -112 127 -115 130 -3 3 -52 59
-110 125 -58 66 -110 126 -117 132 -17 19 -2413 18 -2428 0z"/>
</g>
</svg>
