<?xml version="1.0" standalone="no"?>
<!DOCTYPE svg PUBLIC "-//W3C//DTD SVG 20010904//EN"
 "http://www.w3.org/TR/2001/REC-SVG-20010904/DTD/svg10.dtd">
<svg version="1.0" xmlns="http://www.w3.org/2000/svg"
 width="391.000000pt" height="391.000000pt" viewBox="0 0 391.000000 391.000000"
 preserveAspectRatio="xMidYMid meet">
<metadata>
Created by potrace 1.14, written by Peter Selinger 2001-2017
</metadata>
<g transform="translate(0.000000,391.000000) scale(0.100000,-0.100000)"
fill="#000000" stroke="none">
<path d="M2130 3752 c-38 -4 -92 -29 -200 -89 -77 -42 -217 -93 -274 -98 -38
-4 -220 -55 -302 -86 -32 -12 -81 -37 -109 -54 -55 -36 -214 -188 -259 -247
-35 -47 -137 -111 -281 -178 -159 -74 -173 -82 -204 -115 -65 -69 -151 -271
-192 -452 -12 -51 -14 -53 -48 -54 -20 -1 -54 -3 -76 -4 -22 -1 -62 -3 -89 -4
-139 -3 34 -14 404 -26 761 -24 2277 -24 2915 0 382 14 450 17 454 21 2 2 -25
4 -60 5 -136 2 -171 6 -180 20 -13 21 -11 79 6 124 39 110 5 200 -123 323 -93
91 -81 86 -179 68 -42 -8 -119 -57 -184 -119 -122 -115 -185 -165 -195 -154
-3 2 21 40 52 83 73 103 95 147 166 337 69 185 77 217 56 217 -9 0 -26 27 -43
65 -58 138 -163 186 -431 200 -225 12 -282 29 -384 119 -94 82 -159 109 -240
98z m63 -91 c16 -10 68 -59 115 -108 119 -123 202 -162 402 -187 115 -15 268
-62 330 -101 44 -29 90 -71 90 -84 0 -6 -12 -35 -27 -66 -18 -36 -30 -51 -35
-42 -13 20 -28 -13 -26 -58 0 -26 -9 -59 -25 -92 -27 -53 -47 -74 -48 -51 0 7
-17 -34 -38 -92 -20 -58 -47 -127 -59 -154 -25 -55 -22 -63 30 -80 17 -6 40
-23 50 -37 25 -33 49 -102 38 -109 -7 -4 -51 -5 -106 -1 -6 1 -19 20 -28 44
-9 23 -29 56 -44 73 -79 89 -92 109 -91 133 1 52 24 163 34 163 6 0 22 -34 36
-76 30 -89 36 -97 47 -65 7 17 4 35 -9 64 -10 22 -19 47 -19 56 0 9 -14 30
-30 46 -24 23 -30 37 -26 57 3 14 0 26 -5 26 -5 0 -9 -13 -9 -29 0 -28 -1 -29
-30 -18 -28 11 -30 14 -26 62 2 27 4 53 5 56 1 3 13 6 29 5 22 -1 27 -6 27
-28 1 -15 4 -30 8 -34 4 -4 7 9 7 28 0 35 1 36 33 31 17 -2 51 -13 74 -24 32
-15 43 -27 49 -51 l6 -32 14 26 c8 15 11 34 8 43 -8 21 -78 59 -136 75 -41 11
-46 15 -38 31 6 10 10 21 10 26 -1 4 -7 -4 -16 -19 -13 -25 -19 -27 -52 -22
-58 8 -102 23 -174 60 -61 31 -74 34 -151 33 -107 -2 -149 19 -194 94 -40 67
-97 125 -130 133 -40 10 -110 -12 -165 -53 -48 -35 -49 -35 -55 -14 -8 30 -28
20 -27 -12 2 -33 -5 -35 -136 -40 -88 -3 -103 -6 -200 -50 -121 -55 -152 -81
-186 -157 -49 -111 -60 -123 -152 -185 -111 -75 -192 -141 -221 -180 -48 -66
-51 -68 -31 -27 21 43 22 73 2 35 -16 -29 -93 -224 -103 -260 -8 -27 -14 -32
-39 -31 -17 1 -30 4 -30 9 0 21 168 382 180 387 4 1 55 39 114 83 123 93 150
126 203 250 50 119 72 143 168 185 125 54 169 64 281 64 115 0 150 11 210 64
127 115 227 94 311 -67 20 -38 50 -79 67 -92 38 -28 120 -45 201 -42 56 2 64
-1 122 -42 74 -53 128 -68 253 -70 68 -2 107 -7 137 -21 24 -10 43 -17 43 -15
0 2 3 10 6 19 7 19 -57 50 -126 61 -132 21 -200 40 -273 77 -78 40 -83 41
-176 41 -133 -1 -173 21 -233 127 -35 61 -94 118 -135 129 -54 15 -131 -12
-208 -74 -65 -53 -82 -58 -180 -57 -106 2 -156 -10 -285 -67 -136 -60 -155
-79 -218 -221 -37 -82 -50 -96 -142 -155 -41 -26 -106 -73 -145 -104 -96 -79
-98 -79 -59 -14 19 31 34 62 34 67 0 6 -16 -16 -36 -49 -20 -33 -49 -80 -66
-105 -32 -49 -106 -195 -152 -302 -24 -56 -34 -68 -53 -68 -13 0 -26 1 -30 3
-10 3 -5 40 9 75 6 15 12 43 14 62 5 68 73 264 102 292 27 27 152 102 152 91
0 -3 -38 -63 -84 -133 -110 -165 -168 -261 -163 -266 2 -3 34 42 70 98 187
294 213 329 284 380 93 67 128 103 169 169 42 70 175 198 234 227 44 21 196
67 252 77 16 3 48 14 71 25 23 11 78 29 121 41 44 11 138 50 209 85 138 68
174 76 220 45z m-136 -332 c28 -10 83 -57 83 -70 0 -4 14 -32 32 -63 44 -76
89 -98 202 -100 77 -1 84 -3 131 -37 53 -38 103 -59 141 -59 22 0 24 -4 24
-59 l0 -58 -47 8 c-83 14 -95 18 -162 51 -55 26 -79 32 -141 33 -41 1 -82 4
-90 8 -11 6 -16 2 -16 -13 0 -25 21 -32 105 -34 59 -1 72 -5 120 -39 29 -20
62 -38 72 -38 11 -1 24 -3 29 -4 6 -1 37 -3 71 -4 33 0 58 -5 55 -9 -2 -4 -6
-36 -8 -71 -1 -34 -5 -64 -9 -66 -6 -4 -67 16 -87 28 -7 5 -10 12 -7 17 3 5 1
11 -5 15 -5 3 -10 0 -10 -7 0 -10 -27 -13 -116 -13 l-116 0 -43 48 c-24 26
-46 47 -49 47 -3 0 -4 -14 -2 -32 4 -36 60 -92 113 -114 28 -12 38 -12 80 4
47 19 109 19 127 2 5 -5 6 -28 2 -52 -6 -40 -10 -44 -52 -62 -53 -22 -103 -18
-202 15 -60 20 -90 17 -74 -7 8 -11 158 -55 215 -62 l37 -4 0 -59 0 -59 -42
21 c-36 18 -58 22 -130 21 -109 -2 -150 13 -212 78 -33 35 -59 53 -89 60 -23
6 -81 24 -129 41 -89 30 -121 34 -179 22 -49 -9 -140 -108 -174 -188 l-27 -62
-55 -2 c-61 -2 -60 -5 -8 65 131 178 152 202 182 213 18 7 69 37 115 67 84 56
97 58 144 29 11 -7 31 -41 43 -74 12 -34 28 -61 36 -61 14 0 41 102 32 118 -3
4 -8 27 -12 52 -4 25 -8 47 -10 50 -1 3 -6 28 -9 55 -15 123 -30 195 -53 258
l-25 68 27 29 c30 31 99 69 127 70 9 0 29 -5 45 -11z m-229 -182 c5 -37 5 -70
1 -73 -5 -3 -46 -6 -91 -8 -95 -4 -114 -10 -220 -60 -81 -38 -103 -61 -132
-136 -24 -61 -60 -106 -100 -125 -50 -24 -197 -145 -223 -184 -13 -19 -31 -60
-39 -90 -9 -31 -20 -60 -25 -65 -10 -11 -99 -15 -99 -5 0 3 7 25 15 48 8 22
11 41 7 41 -4 0 -15 -21 -24 -47 -14 -39 -22 -48 -42 -49 -23 -2 -24 0 -15 24
6 15 14 31 18 37 5 5 16 41 26 80 21 87 44 119 105 150 58 30 205 138 242 180
15 16 44 68 64 115 46 105 78 148 124 165 19 7 64 25 100 40 54 23 81 28 173
30 60 2 112 6 115 10 8 8 9 4 20 -78z m18 -167 c-1 -21 -14 -31 -76 -63 -70
-36 -79 -38 -137 -31 l-62 6 -45 -49 c-25 -27 -60 -69 -77 -93 -77 -108 -126
-155 -204 -195 -84 -43 -106 -67 -110 -118 -2 -31 -4 -32 -55 -35 -46 -3 -51
-1 -46 15 3 10 10 39 17 66 11 46 63 107 92 107 7 0 55 33 107 73 94 72 96 74
150 182 30 60 62 112 70 117 107 56 158 71 260 77 115 7 118 5 116 -59z m12
-114 c3 -28 0 -36 -9 -31 -29 19 -70 5 -120 -38 -28 -25 -82 -62 -120 -83 -64
-35 -159 -117 -159 -137 0 -9 -82 -129 -108 -159 -12 -14 -31 -18 -94 -18 -43
0 -78 3 -78 6 0 24 43 67 102 104 38 23 79 57 91 75 12 17 47 61 79 96 109
124 118 134 118 140 0 8 68 23 91 20 20 -2 159 45 173 59 18 18 30 5 34 -34z
m873 -39 c4 -5 3 -24 -1 -41 -5 -17 -14 -57 -20 -89 -12 -58 -12 -58 -28 -36
-10 14 -15 38 -13 63 4 54 8 98 10 114 1 15 41 7 52 -11z m726 -92 c37 -42 71
-87 75 -101 4 -17 -3 -45 -23 -90 -16 -36 -32 -84 -35 -107 -4 -23 -8 -44 -10
-47 -3 -2 -27 -4 -55 -5 -46 -1 -50 1 -44 20 4 11 9 64 12 117 5 91 4 99 -20
140 -14 24 -35 53 -46 65 -12 12 -21 26 -21 31 0 7 76 50 92 51 4 1 37 -33 75
-74z m-2631 -61 c-44 -86 -89 -185 -115 -251 -10 -25 -20 -33 -37 -33 -24 0
-24 0 16 73 22 40 47 105 56 144 19 87 41 124 85 146 18 8 35 14 37 13 1 -2
-17 -43 -42 -92z m2476 -64 c20 -44 34 -174 21 -205 -3 -11 -21 -15 -57 -15
l-51 0 3 83 c3 81 2 84 -33 137 -20 29 -32 56 -28 60 4 4 21 17 38 29 l30 23
28 -34 c16 -18 38 -53 49 -78z m-686 46 c30 -30 32 -37 24 -65 -5 -19 -5 -31
1 -31 5 0 9 9 9 20 0 29 12 24 40 -17 14 -20 48 -61 77 -92 29 -30 53 -59 53
-63 0 -5 -27 -8 -60 -8 -33 0 -60 4 -60 8 0 4 -14 30 -32 58 -17 27 -31 58
-30 69 1 16 0 17 -6 4 -6 -14 -14 -11 -50 21 -42 38 -43 40 -37 84 9 56 24 59
71 12z m-1910 -73 c-15 -55 -61 -146 -83 -165 -11 -9 -12 -7 -7 8 4 10 10 24
14 29 3 6 23 49 44 98 22 48 40 86 42 84 2 -1 -3 -26 -10 -54z m1109 28 c117
-35 189 -72 251 -130 36 -34 71 -61 79 -61 7 0 16 -4 19 -8 2 -4 -35 -8 -83
-7 -79 0 -92 3 -128 28 -33 22 -51 28 -104 28 -98 2 -103 1 -145 -27 -31 -21
-53 -27 -106 -30 -38 -1 -70 2 -73 6 -10 16 51 134 84 163 63 55 116 65 206
38z m1311 -24 c27 -40 42 -88 48 -149 l4 -46 -63 1 c-35 1 -66 5 -70 8 -3 4
-8 26 -10 48 -3 23 -14 56 -27 73 -14 21 -18 33 -11 35 7 3 31 17 55 33 24 17
45 30 48 30 3 0 15 -15 26 -33z m-619 -59 c-6 -21 -5 -22 7 -5 12 16 18 13 67
-38 83 -86 83 -85 -8 -85 -43 0 -84 4 -91 8 -15 10 -13 123 3 134 19 14 27 8
22 -14z m-1662 -27 c-14 -39 -50 -110 -42 -81 15 52 43 120 49 120 4 0 1 -18
-7 -39z m1023 -76 c9 -2 23 -4 30 -4 6 -1 12 -4 12 -9 0 -4 -45 -7 -100 -8
-102 0 -126 8 -67 24 28 8 71 7 125 -3z"/>
<path d="M1963 3155 c-18 -8 -33 -19 -33 -26 0 -7 6 -8 18 -3 9 4 34 9 55 12
46 5 77 -14 113 -67 23 -35 25 -47 20 -103 -2 -35 -5 -72 -5 -84 -1 -17 -6
-20 -30 -16 -36 5 -55 25 -70 73 -10 30 -42 59 -67 59 -10 0 6 -66 26 -108 23
-47 55 -65 105 -60 l30 3 0 -73 c1 -41 -2 -75 -6 -78 -4 -2 -14 8 -23 22 -18
26 -72 64 -93 64 -7 0 -13 -11 -13 -24 0 -18 7 -25 29 -29 38 -8 106 -90 115
-139 7 -37 29 -52 38 -25 2 6 4 103 4 214 -1 112 2 203 7 203 11 0 9 48 -3 55
-5 3 -10 13 -10 20 0 8 -24 39 -53 70 -59 60 -89 68 -154 40z"/>
<path d="M1945 2527 c-9 -22 -2 -62 10 -60 6 1 11 14 13 29 4 32 -14 56 -23
31z"/>
<path d="M610 2281 c0 -3 16 -23 35 -43 31 -33 41 -38 80 -38 39 0 50 5 74 33
16 17 29 37 30 42 2 18 -68 13 -86 -7 -15 -17 -17 -17 -36 -1 -18 17 -97 28
-97 14z"/>
<path d="M1631 2189 c-47 -10 -84 -40 -98 -80 -7 -20 -11 -95 -11 -180 -1
-175 13 -217 78 -243 47 -19 128 -14 164 9 50 33 58 64 58 224 1 80 -2 160 -6
177 -15 66 -102 110 -185 93z m59 -175 c8 -138 1 -254 -15 -254 -7 0 -16 7
-19 16 -8 20 -8 282 0 312 13 48 29 14 34 -74z"/>
<path d="M2627 2185 c-86 -22 -99 -56 -99 -257 0 -178 8 -205 71 -239 45 -24
131 -21 168 7 53 39 62 72 62 237 0 163 -9 204 -51 231 -40 26 -99 34 -151 21z
m67 -97 c4 -20 2 -283 -2 -315 -1 -7 -9 -13 -17 -13 -16 0 -17 12 -16 223 0
59 3 112 6 117 11 17 24 11 29 -12z"/>
<path d="M240 2155 c-1 -42 -1 -425 -1 -454 l1 -23 126 4 c123 4 127 5 150 32
23 26 24 33 24 200 0 97 -5 186 -11 204 -16 46 -58 61 -182 64 l-107 3 0 -30z
m158 -67 c8 -8 12 -56 12 -149 0 -145 -4 -169 -26 -169 -11 0 -14 31 -14 165
0 91 4 165 8 165 4 0 13 -5 20 -12z"/>
<path d="M594 2181 c-2 -2 -4 -116 -4 -253 l0 -248 65 0 65 0 0 109 c0 102 8
136 28 116 4 -4 9 -56 10 -116 l4 -109 59 0 59 0 0 106 c0 103 -1 106 -29 135
-24 23 -26 29 -12 29 36 0 52 85 30 162 -15 55 -48 68 -170 71 -55 1 -103 0
-105 -2z m162 -143 c-1 -32 -5 -44 -18 -46 -15 -3 -18 5 -18 53 0 51 2 55 19
46 14 -8 18 -21 17 -53z"/>
<path d="M940 2182 c-6 -2 -10 -96 -10 -253 l0 -250 113 3 112 3 1 48 0 47
-48 0 -48 0 0 55 0 55 40 0 40 0 0 50 c0 35 -4 50 -12 49 -7 -1 -25 -1 -40 0
-26 1 -28 4 -28 45 l0 45 43 3 42 3 3 48 c3 40 0 47 -15 48 -79 3 -185 3 -193
1z"/>
<path d="M1189 2182 c-25 -3 -26 -4 -17 -55 4 -29 10 -68 13 -88 9 -71 46
-314 51 -336 4 -22 9 -23 104 -23 100 0 100 0 101 25 1 14 2 28 3 33 3 11 18
124 22 161 2 19 5 48 8 65 17 113 27 200 23 210 -4 9 -25 11 -68 9 -35 -2 -64
-5 -65 -6 -1 -1 -5 -45 -9 -97 -4 -52 -9 -104 -10 -115 -2 -11 -4 -40 -4 -64
-1 -67 -8 -46 -16 49 -3 47 -10 112 -14 145 -5 33 -7 63 -4 68 8 14 -64 26
-118 19z"/>
<path d="M1887 2182 c-16 -3 -17 -25 -17 -253 l0 -250 67 3 66 3 -1 98 c-1 53
2 97 6 98 4 0 27 2 52 4 58 5 90 38 91 98 3 131 -9 169 -58 188 -26 10 -171
17 -206 11z m155 -126 c5 -46 -5 -80 -25 -84 -14 -3 -16 6 -16 55 1 32 3 61 5
65 10 16 32 -6 36 -36z"/>
<path d="M2194 2181 c-2 -2 -4 -116 -4 -253 l0 -248 65 0 65 0 0 115 c0 87 3
114 13 112 23 -4 27 -22 27 -124 l0 -103 60 0 60 0 0 98 c0 118 -4 134 -38
155 -19 12 -22 17 -10 17 27 0 48 40 48 93 0 64 -21 111 -56 125 -27 11 -221
22 -230 13z m164 -144 c-2 -30 -8 -43 -20 -45 -15 -3 -18 5 -18 53 0 53 1 55
21 45 16 -9 20 -19 17 -53z"/>
<path d="M2876 2180 c-2 -5 1 -463 3 -488 2 -22 221 -15 259 9 39 23 44 57 40
262 l-3 159 -31 27 c-25 22 -41 28 -90 30 -116 6 -176 6 -178 1z m163 -94 c12
-14 15 -274 4 -303 -7 -17 -33 -17 -34 0 0 14 0 226 0 280 1 39 11 46 30 23z"/>
<path d="M3242 2179 c-15 -6 -17 -28 -15 -230 1 -123 2 -234 2 -246 1 -22 4
-23 111 -23 81 0 110 3 111 13 5 89 8 85 -55 89 -39 3 -39 3 -38 46 0 23 1 46
1 51 1 6 18 11 39 13 37 3 37 3 40 51 3 48 3 49 -25 47 -56 -4 -64 6 -53 64 4
27 9 30 45 30 l39 1 1 43 c0 24 -3 46 -8 49 -13 8 -174 9 -195 2z"/>
<path d="M3530 2182 c-6 -2 -10 -75 -10 -192 0 -104 -3 -195 -6 -204 -3 -9
-15 -16 -25 -16 -16 0 -19 -8 -19 -46 l0 -45 58 2 c68 3 107 20 116 51 3 13 6
119 6 236 0 195 -1 212 -17 213 -54 3 -94 4 -103 1z"/>
<path d="M1567 1574 c-1 -1 -209 -5 -462 -8 -437 -7 -680 -13 -825 -21 -36 -2
-103 -4 -149 -4 -104 -1 -101 -11 5 -15 44 -2 86 -4 95 -5 11 -1 19 -15 23
-43 4 -24 22 -74 40 -113 47 -98 49 -108 51 -220 3 -166 39 -225 211 -343 96
-66 191 -143 212 -174 8 -10 48 -49 90 -85 62 -53 113 -83 270 -159 106 -52
195 -94 198 -94 3 0 38 -21 77 -47 142 -92 171 -97 294 -58 43 14 93 25 111
25 44 0 68 25 93 94 19 55 75 275 82 323 4 30 12 37 14 12 1 -11 9 -52 17 -92
9 -40 18 -101 20 -137 5 -88 20 -139 53 -178 28 -33 28 -33 68 -19 22 8 85 37
140 65 55 27 129 60 164 73 38 15 85 43 117 71 32 28 72 52 97 59 41 11 60 28
172 150 22 25 78 71 125 104 148 103 231 205 276 339 9 25 20 46 25 46 5 0 44
35 87 77 56 55 103 90 157 118 93 48 145 96 171 159 10 25 24 47 29 47 24 4
73 7 109 8 22 1 37 3 35 5 -2 3 -92 7 -199 11 -107 4 -235 8 -285 10 -254 10
-1799 26 -1808 19z m-1041 -518 c3 -8 4 -23 2 -32 -3 -15 -8 -13 -38 14 l-35
31 33 1 c19 0 35 -6 38 -14z m80 -31 c0 -48 -2 -51 -39 -34 -17 8 -23 19 -24
45 -1 32 1 34 31 34 32 0 32 -1 32 -45z m84 -21 c0 -59 -2 -65 -17 -59 -10 4
-26 10 -35 12 -14 4 -18 16 -18 52 0 56 4 61 42 61 28 0 28 0 28 -66z m63 35
c36 -29 37 -33 37 -95 l0 -65 -29 20 c-16 12 -34 21 -40 21 -12 0 -12 0 -15
88 -1 34 1 62 4 62 3 0 22 -14 43 -31z m158 19 c2 -15 2 -67 0 -86 -1 -14
-111 74 -111 89 0 15 110 11 111 -3z m96 0 c5 -7 8 -26 7 -43 -1 -16 -2 -51
-3 -77 -1 -27 -5 -48 -9 -48 -4 0 -22 12 -41 28 -29 25 -33 33 -35 90 l-2 62
37 0 c20 0 41 -6 46 -12z m73 -4 c0 -14 -3 -14 -15 -4 -8 7 -15 14 -15 16 0 2
7 4 15 4 8 0 15 -7 15 -16z m104 -25 c4 -23 5 -44 2 -46 -4 -4 -51 20 -84 42
-1 1 -4 12 -7 24 -3 19 1 21 39 21 43 0 43 0 50 -41z m104 -31 c2 -38 1 -68
-2 -68 -3 0 -21 7 -40 16 -23 12 -36 26 -40 44 -3 15 -8 40 -12 54 -6 27 -6
27 42 24 l49 -3 3 -67z m61 54 c5 -10 12 -48 16 -86 l7 -69 -28 7 c-38 10 -40
14 -42 96 -2 63 0 70 18 70 11 0 24 -8 29 -18z m373 -2 c65 -10 127 -24 139
-31 54 -28 177 -13 259 32 29 16 51 19 127 17 l92 -3 -92 -61 c-104 -69 -109
-72 -192 -79 -53 -5 -93 -12 -185 -30 -50 -11 -128 -6 -165 9 -20 9 -54 33
-74 53 -51 54 -63 62 -128 89 l-58 24 80 0 c44 0 133 -9 197 -20z m318 5 c-39
-14 -150 -12 -190 4 -19 7 6 10 100 10 115 -1 122 -2 90 -14z m590 6 c0 -16
-69 -70 -128 -101 -31 -16 -93 -54 -137 -84 -44 -30 -83 -52 -87 -48 -3 4 -9
16 -12 27 -3 11 -4 8 -2 -8 4 -31 -18 -58 -65 -83 -30 -15 -138 -34 -143 -25
-2 3 -9 33 -16 66 -7 33 -17 66 -22 73 -13 15 -17 14 68 17 87 4 112 15 244
104 l105 70 98 1 c53 0 97 -4 97 -9z m100 -38 c0 -25 3 -43 7 -39 4 4 6 25 4
46 -2 39 -2 40 29 40 l32 0 -23 -37 c-13 -21 -41 -62 -63 -92 -36 -49 -40 -53
-47 -33 -28 74 -7 162 39 162 20 0 22 -5 22 -47z m196 -23 c2 -64 1 -66 -32
-88 l-34 -22 2 22 c1 13 -2 54 -6 91 l-7 68 37 -3 38 -3 2 -65z m74 38 c0 -29
-32 -78 -50 -78 -4 0 -8 25 -9 55 -2 55 -1 55 29 55 27 0 30 -3 30 -32z m50
23 c0 -5 -6 -14 -14 -20 -11 -9 -15 -7 -19 9 -4 15 0 20 14 20 10 0 19 -4 19
-9z m-211 -103 l2 -93 -40 -38 c-23 -21 -41 -33 -42 -25 0 7 -2 31 -5 54 -5
34 1 53 31 109 40 77 45 85 49 85 1 0 3 -42 5 -92z m-1429 72 c24 0 37 -33 39
-94 1 -36 -1 -66 -4 -66 -3 0 -19 7 -35 15 -20 11 -29 23 -29 38 1 12 -2 44
-5 71 -6 42 -5 48 9 42 9 -3 20 -6 25 -6z m-318 -122 l4 -66 -36 18 c-36 18
-36 19 -34 77 3 106 0 101 33 68 25 -26 30 -39 33 -97z m436 82 c21 -7 60 -32
85 -56 66 -62 106 -77 195 -71 41 2 77 8 80 13 6 8 82 15 82 8 0 -2 -13 -24
-29 -50 -18 -27 -38 -83 -51 -138 -38 -162 -41 -174 -50 -151 -4 11 -10 41
-14 68 -6 38 -4 48 8 53 23 9 20 34 -4 34 -13 0 -20 7 -20 20 0 11 -4 20 -9
20 -4 0 -6 -10 -4 -23 4 -22 1 -23 -38 -23 l-43 1 -12 70 c-7 39 -13 78 -13
88 -1 9 -6 17 -12 17 -5 0 -8 -3 -6 -7 7 -11 19 -80 22 -125 2 -30 -1 -38 -14
-38 -28 0 -61 30 -61 55 0 13 -4 26 -9 29 -4 3 -6 -7 -3 -22 4 -26 3 -26 -36
13 -30 30 -41 51 -46 85 -9 54 -25 100 -37 100 -4 0 -1 -16 7 -35 16 -39 19
-85 5 -85 -25 0 -38 32 -40 100 -2 60 0 72 12 67 8 -3 33 -11 55 -17z m-652
-52 c37 -38 42 -50 48 -105 4 -35 5 -63 2 -63 -3 0 -21 15 -40 33 -18 18 -43
39 -55 47 -17 12 -22 27 -25 82 -4 78 1 78 70 6z m1777 -16 c5 -41 4 -44 -34
-69 -46 -30 -55 -25 -64 32 -7 39 -5 42 34 69 23 16 41 34 42 40 1 21 16 -29
22 -72z m-1505 32 c18 -8 35 -20 39 -27 8 -13 16 -137 9 -137 -2 0 -23 10 -45
22 -27 14 -41 29 -42 42 -4 87 -4 116 2 116 3 0 20 -7 37 -16z m142 -143 l0
-53 -32 6 c-17 3 -32 7 -34 9 -1 1 -4 32 -7 68 l-6 67 40 -22 c38 -20 39 -23
39 -75z m1251 92 c0 -5 2 -26 5 -48 5 -40 4 -40 -53 -76 -73 -44 -76 -45 -85
-17 -6 17 -6 14 -3 -9 4 -30 0 -35 -41 -59 -25 -15 -46 -25 -48 -23 -2 2 -7
22 -13 44 l-10 41 111 76 c105 72 135 88 137 71z m202 -78 c4 -40 1 -55 -20
-87 -14 -21 -28 -38 -30 -38 -2 0 -1 5 2 10 3 6 1 10 -5 10 -7 0 -9 -12 -7
-29 6 -34 -20 -82 -58 -107 -14 -9 -27 -15 -29 -13 -2 2 -7 39 -10 82 -3 43
-8 82 -11 87 -6 10 5 20 57 55 42 27 50 22 50 -31 0 -19 4 -31 9 -28 5 3 7 26
3 51 -5 38 -2 48 17 69 12 13 24 23 25 21 2 -1 5 -25 7 -52z m-1760 20 c36
-25 37 -27 37 -91 l0 -65 -35 27 c-19 15 -37 36 -40 48 -8 41 -12 106 -6 106
3 0 23 -11 44 -25z m393 -55 c-1 -27 -4 -51 -7 -54 -3 -4 -20 -1 -38 5 -31 11
-32 13 -30 64 l2 52 37 -9 c36 -9 37 -10 36 -58z m51 29 c29 -10 30 -12 31
-74 l0 -64 -34 16 c-33 16 -34 19 -34 75 0 32 2 58 4 58 1 0 17 -5 33 -11z
m-355 -22 c24 -19 27 -30 30 -94 l3 -71 -27 14 c-15 8 -30 19 -34 25 -9 15
-14 149 -6 149 4 0 19 -10 34 -23z m453 -5 c12 -8 14 -152 3 -152 -5 0 -16 8
-26 18 -13 13 -19 36 -21 80 -2 54 0 62 16 62 10 0 23 -4 28 -8z m-362 -54
c18 -13 33 -24 35 -24 2 -1 5 -31 8 -68 l5 -65 -46 25 c-31 18 -45 33 -46 47
0 12 -2 41 -4 65 -3 48 3 51 48 20z m449 -118 c4 -59 3 -68 -5 -42 -5 17 -14
32 -18 32 -5 0 -4 -12 2 -26 13 -35 7 -38 -24 -13 -32 25 -37 60 -8 52 19 -5
19 -3 6 54 -19 78 -19 79 13 46 25 -25 30 -38 34 -103z m683 75 c7 -39 5 -42
-32 -68 -22 -15 -42 -27 -45 -27 -10 0 -30 104 -21 107 4 2 24 11 43 21 19 10
38 16 42 13 4 -3 10 -24 13 -46z m273 -48 l3 -86 -46 -27 c-25 -14 -47 -25
-49 -23 -8 8 -36 114 -36 134 0 14 17 33 53 58 28 20 57 35 62 34 6 -2 11 -42
13 -90z m-1277 5 c1 -21 2 -52 4 -69 2 -36 -2 -39 -40 -21 -14 6 -25 20 -26
32 0 12 -2 37 -5 56 -6 53 0 61 36 49 26 -9 30 -16 31 -47z m898 -1 c12 -57 6
-69 -29 -72 -8 0 -22 -2 -31 -4 -26 -5 -34 6 -51 67 l-16 57 41 3 c23 2 49 3
59 3 12 1 19 -14 27 -54z m-493 7 c3 -4 8 -24 10 -45 3 -21 6 -50 9 -64 4 -25
2 -26 -33 -22 -20 2 -40 7 -44 11 -4 4 -10 40 -14 79 l-7 72 36 -13 c20 -7 39
-15 43 -18z m-347 11 c18 -6 30 -16 28 -23 -2 -6 -1 -37 3 -69 3 -32 4 -60 0
-62 -3 -2 -20 3 -38 10 -29 13 -32 18 -33 57 0 24 -2 55 -4 71 -4 30 -1 32 44
16z m462 -26 c0 -10 2 -26 4 -36 25 -131 26 -153 13 -192 -12 -36 -17 -40 -48
-43 l-36 -3 1 58 c0 56 1 58 28 61 19 2 27 9 27 23 0 16 -5 18 -35 13 -30 -5
-35 -3 -35 15 0 12 -1 23 -2 26 0 2 -4 25 -8 50 l-7 45 49 0 c39 0 48 -3 49
-17z m-375 -7 c15 -12 19 -28 21 -85 2 -74 -5 -85 -39 -58 -11 8 -19 36 -23
85 -7 78 0 88 41 58z m1007 -57 c10 -40 16 -74 13 -76 -2 -2 -26 -12 -53 -23
l-49 -18 -12 65 c-7 36 -11 67 -10 68 22 16 84 55 88 55 4 0 14 -32 23 -71z
m-931 -13 c11 -21 18 -126 8 -126 -3 0 -15 6 -26 14 -17 12 -21 26 -21 86 -1
61 1 69 14 59 8 -7 19 -22 25 -33z m812 -3 c3 -10 8 -38 11 -63 l7 -45 -44
-16 -43 -16 -15 56 -16 56 41 22 c49 27 52 27 59 6z m-714 -120 c0 -35 -3 -63
-7 -63 -5 1 -20 11 -35 23 -25 21 -33 53 -29 114 1 22 1 22 36 5 34 -17 35
-18 35 -79z m610 72 c4 -11 10 -38 13 -61 6 -40 5 -41 -40 -63 -48 -23 -62
-19 -63 22 0 9 -1 20 -2 25 -1 4 -5 24 -10 45 -5 21 -6 41 -4 45 2 4 26 7 52
7 37 0 48 -4 54 -20z m-509 -30 c12 8 17 -6 20 -60 l4 -50 -44 -6 c-37 -5 -44
-3 -49 13 -2 10 -8 18 -13 18 -5 0 -9 10 -8 23 0 21 1 21 9 2 6 -15 9 -9 9 27
l1 47 31 -9 c18 -5 35 -7 40 -5z m-84 -117 c-3 -8 -6 -5 -6 6 -1 11 2 17 5 13
3 -3 4 -12 1 -19z"/>
<path d="M1600 825 c0 -14 4 -25 9 -25 4 0 6 11 3 25 -2 14 -6 25 -8 25 -2 0
-4 -11 -4 -25z"/>
<path d="M1775 800 c12 -40 26 -59 19 -25 -4 17 -11 35 -16 40 -7 7 -8 1 -3
-15z"/>
</g>
</svg>
